HIERARCHY
ROOT Hips
{
  OFFSET 263.056 91.6644 -274.608
  CHANNELS 6 Xposition Yposition Zposition Zrotation Xrotation Yrotation
  JOINT LeftUpLeg
  {
    OFFSET 8.64259 1.95398 -2.38835
    CHANNELS 3 Zrotation Xrotation Yrotation
    JOINT LeftLeg
    {
      OFFSET 43.7702 0 0
      CHANNELS 3 Zrotation Xrotation Yrotation
      JOINT LeftFoot
      {
        OFFSET 40.6238 0 0
        CHANNELS 3 Zrotation Xrotation Yrotation
        JOINT LeftToeBase
        {
          OFFSET 12.7242 0 0
          CHANNELS 3 Zrotation Xrotation Yrotation
          End Site
          {
            OFFSET 0 0 0
          }
        }
      }
    }
  }
  JOINT RightUpLeg
  {
    OFFSET -8.2249 1.95398 -2.59336
    CHANNELS 3 Zrotation Xrotation Yrotation
    JOINT RightLeg
    {
      OFFSET 43.5653 0 0
      CHANNELS 3 Zrotation Xrotation Yrotation
      JOINT RightFoot
      {
        OFFSET 40.6238 0 0
        CHANNELS 3 Zrotation Xrotation Yrotation
        JOINT RightToeBase
        {
          OFFSET 12.7242 0 0
          CHANNELS 3 Zrotation Xrotation Yrotation
          End Site
          {
            OFFSET 0 0 0
          }
        }
      }
    }
  }
  JOINT Spine
  {
    OFFSET 0.165834 0.87714 6.61349
    CHANNELS 3 Zrotation Xrotation Yrotation
    JOINT Spine1
    {
      OFFSET 7.38963 1.71661e-005 0
      CHANNELS 3 Zrotation Xrotation Yrotation
      JOINT Spine2
      {
        OFFSET 11.9445 1.14441e-005 0
        CHANNELS 3 Zrotation Xrotation Yrotation
        JOINT Spine3
        {
          OFFSET 14.7254 4.19617e-005 0
          CHANNELS 3 Zrotation Xrotation Yrotation
          JOINT Spine4
          {
            OFFSET 10.9679 0 0
            CHANNELS 3 Zrotation Xrotation Yrotation
            JOINT RightShoulder
            {
              OFFSET 2.46616 -1.6653 3.69651
              CHANNELS 3 Zrotation Xrotation Yrotation
              JOINT RightArm
              {
                OFFSET 13.0012 0 0
                CHANNELS 3 Zrotation Xrotation Yrotation
                JOINT RightForeArm
                {
                  OFFSET 28.7848 1.52588e-005 0
                  CHANNELS 3 Zrotation Xrotation Yrotation
                  JOINT RightHand
                  {
                    OFFSET 26.5688 1.52588e-005 0
                    CHANNELS 3 Zrotation Xrotation Yrotation
                    End Site
                    {
                      OFFSET 0 0 0
                    }
                  }
                }
              }
            }
            JOINT LeftShoulder
            {
              OFFSET 2.38034 -1.29275 -3.7523
              CHANNELS 3 Zrotation Xrotation Yrotation
              JOINT LeftArm
              {
                OFFSET 16.3182 6.10352e-005 0
                CHANNELS 3 Zrotation Xrotation Yrotation
                JOINT LeftForeArm
                {
                  OFFSET 27.0901 0 0
                  CHANNELS 3 Zrotation Xrotation Yrotation
                  JOINT LeftHand
                  {
                    OFFSET 24.5451 1.52588e-005 0
                    CHANNELS 3 Zrotation Xrotation Yrotation
                    End Site
                    {
                      OFFSET 0 0 0
                    }
                  }
                }
              }
            }
            JOINT Neck
            {
              OFFSET 5.0226 -0.0266342 0
              CHANNELS 3 Zrotation Xrotation Yrotation
              JOINT Head
              {
                OFFSET 6.69364 2.86102e-005 0
                CHANNELS 3 Zrotation Xrotation Yrotation
                End Site
                {
                  OFFSET 0 0 0
                }
              }
            }
          }
        }
      }
    }
  }
}
MOTION
Frames:	15
Frame Time:	0.0416667
-53.6491 93.3831 -198.13 96.9398 -84.008 94.4471 -174.208 -8.3111 87.8741 -22.9742 25.9989 0.744998 61.5514 8.69951 15.2736 58.1843 27.2591 -12.4396 -179.591 25.2189 88.3156 -9.12844 6.89878 -0.671473 61.1653 -1.14598 -0.595085 53.4326 2.11251 3.93207 -1.41829 7.70766 -89.8528 11.4668 -2.75297 0.57269 -0.201404 -2.72509 0.693374 -22.7598 -2.79772 -0.281828 -2.74719 -2.79772 -0.281837 78.0936 -55.3899 -116.505 27.8332 -9.06606 25.5276 -7.14057 -19.2441 -34.1315 -0.694762 -0.256968 3.54764 -101.075 -40.2132 58.3266 -16.3084 2.11959 -3.33865 9.9238 3.43184 -56.9102 15.1955 1.27822 4.47034 9.13037 2.03803 -0.166286 -2.08371 2.06013 2.81707 
-53.5608 92.457 -188.121 109.661 -84.0634 110.831 -173.654 -8.92447 92.6582 -32.8215 24.3185 2.34481 54.312 -1.69556 4.57109 63.7119 36.3871 -2.70203 179.555 27.4389 92.1237 -25.6493 8.46747 0.756807 58.9844 -0.375296 -0.094228 44.9412 1.47689 5.81221 -1.36897 7.74415 -90.4359 11.3858 -2.92736 -0.573386 -0.281793 -2.94977 -0.443892 -22.8387 -2.61961 -1.4272 -2.82604 -2.61962 -1.42721 77.6976 -55.246 -117.111 26.1489 -8.60274 25.1797 -6.57099 -20.4171 -31.4829 -0.396726 -0.240712 4.16282 -102.186 -41.8499 57.3481 -18.1904 1.14384 -0.79333 9.64679 3.13701 -56.1462 15.4413 1.33697 4.72131 9.03263 2.72487 1.99825 -2.74523 2.24387 2.91593 
-54.1323 92.0531 -179.138 130.947 -84.8799 133.058 -173.28 -2.94433 95.1332 -46.9626 21.6654 1.61685 39.7602 -13.7683 -3.82024 41.7727 16.1035 10.8585 178.855 26.5459 94.8393 -37.3956 8.51756 1.05147 65.1281 -1.70505 -0.91792 33.5567 0.0898297 9.74648 -1.0754 7.73726 -90.5337 11.3918 -2.38878 -0.822337 -0.277125 -2.42265 -0.71635 -22.8238 -2.03119 -1.50244 -2.81112 -2.03118 -1.50244 77.5125 -54.663 -117.6 25.9508 -8.20024 22.3011 -5.73237 -20.2815 -30.1904 -0.315164 -0.231107 4.21946 -102.909 -42.3738 56.4822 -21.6481 3.26273 1.98907 8.5919 3.91992 -51.3575 15.6658 1.43239 5.20284 8.94031 2.51592 2.61219 -4.05947 1.88706 1.48912 
-54.5373 93.4919 -170.394 141.841 -84.9951 143.838 -173.148 7.4124 94.8633 -58.1506 14.7604 0.952928 44.1729 -9.75129 2.84553 42.7748 16.2921 4.75854 178.979 20.1121 95.8222 -37.7586 8.4748 0.567296 69.3341 -2.73143 -1.44456 29.5481 -0.517185 10.0673 -0.68511 7.74035 -90.4308 11.3903 -1.56425 -0.700877 -0.279872 -1.59358 -0.631342 -22.8191 -1.2813 -1.13863 -2.80647 -1.2813 -1.13864 78.5804 -53.018 -116.75 27.3976 -7.48585 17.9277 -7.29288 -18.1875 -34.7462 -1.051 -0.2637 4.08999 -103.958 -43.0621 55.2111 -24.1034 6.55939 3.18883 6.38499 5.73189 -42.2957 13.5152 1.00239 3.46599 8.67882 1.41055 2.24903 -4.18313 0.88879 1.26825 
-55.34 95.323 -162.101 165.937 -85.7537 165.778 -172.349 14.7968 92.1378 -53.4067 12.9108 -0.529272 49.8369 -5.30756 3.44088 46.3904 21.1303 7.06938 179.768 12.5616 95.2986 -33.7456 8.05136 -1.38361 70.5679 -2.9042 -1.51317 32.2995 -0.141469 11.3799 -0.230533 7.70692 -90.0476 11.4608 -0.480882 -0.0460009 -0.210079 -0.482432 -0.0247994 -22.7457 -0.444828 -0.188394 -2.73309 -0.444826 -0.188404 79.0916 -51.746 -116.522 27.2891 -9.06223 12.9533 -8.46437 -15.094 -41.3771 -4.32474 -0.446832 3.82673 -103.846 -43.3217 55.5057 -28.176 7.58175 5.62775 4.7654 7.96995 -33.7633 12.7235 0.952605 3.49988 7.48698 0.788677 1.8943 -3.51813 0.38514 0.9495 
-55.5652 96.3879 -154.422 -151.391 -85.8148 -152.38 -172.033 18.4202 90.4678 -36.1597 9.13257 -1.47869 55.474 -0.31445 5.0369 47.4047 23.2786 10.2442 179.628 5.98743 94.2398 -29.3447 3.70849 -2.05323 70.1937 -2.9585 -1.54889 35.778 0.403233 8.97213 0.257581 7.67218 -89.8542 11.5289 0.580698 0.230959 -0.141993 0.590311 0.205172 -22.6777 0.484442 0.394804 -2.6651 0.484443 0.39481 79.1056 -49.281 -117.513 25.6712 -9.8072 8.11696 -11.4905 -13.6702 -49.8973 -4.64354 -0.409171 1.75566 -103.581 -43.8408 56.1486 -31.8905 7.0436 9.68509 4.08234 9.12826 -28.6476 9.61185 0.716288 3.28524 7.46095 0.936806 2.98859 -3.50357 0.309751 -0.24361 
-55.1737 96.417 -146.682 -113.909 -84.3125 -114.558 -173.767 17.3696 90.7032 -8.34152 6.72209 -0.676059 56.3952 2.21261 6.57865 50.0059 27.6599 13.1941 178.923 0.496914 93.5282 -25.7524 1.03667 -2.10991 71.4645 -3.73471 -1.90214 37.5573 0.685065 10.1333 0.649668 7.60351 -89.8352 11.6664 1.36956 0.185607 -0.00381245 1.37639 0.125134 -22.5439 1.25045 0.588704 -2.53125 1.25044 0.588687 80.6177 -47.2816 -116.066 22.1292 -12.1694 0.657614 -14.0904 -12.8082 -55.584 -5.00601 -0.449672 2.27822 -102.87 -44.7599 57.6396 -34.6917 6.8764 13.3101 3.78945 10.7129 -25.8282 7.02532 0.57585 3.72394 8.49134 1.70851 4.75054 -3.77617 0.6687 -1.5986 
-54.5728 95.6435 -138.674 -100.175 -81.4608 -99.7973 -174.599 23.24 91.9758 -4.46373 4.16371 0.488405 62.2858 2.97579 6.04621 51.5285 29.5498 12.8837 178.357 -4.1131 92.7193 -24.5965 -2.59332 -2.59714 70.8958 -4.20695 -2.16952 43.4548 1.50684 9.04889 1.05104 7.60764 -89.9061 11.6607 2.13469 -0.0353193 -0.00851914 2.13107 -0.129284 -22.5569 2.04658 0.608148 -2.54429 2.04657 0.608144 81.1312 -45.5541 -115.99 18.3856 -11.2685 -5.0537 -16.2717 -13.6074 -59.0605 -7.47659 -0.592174 2.57639 -102.229 -45.552 58.9491 -36.603 6.74818 15.9839 3.06648 10.9136 -23.6727 7.22297 0.566946 3.43036 9.51057 2.33936 5.95441 -4.13178 0.984545 -2.08768 
-53.8401 94.1544 -129.883 -100.678 -79.7005 -100.788 -174.031 22.9447 91.1588 -5.96368 5.60582 -0.765322 58.4308 1.02606 4.21146 49.9626 27.2978 12.3795 177.983 -6.0591 90.9155 -31.1688 -6.38186 -4.65115 66.9537 -2.81411 -1.55001 55.5661 2.7892 6.63732 1.29171 7.60343 -89.7587 11.6668 2.68242 0.200235 -0.00137248 2.68863 0.0818869 -22.5563 2.49816 0.997652 -2.54369 2.49816 0.997651 79.987 -46.1043 -117.528 16.5187 -8.9651 -5.50018 -17.1441 -12.8853 -60.3655 -8.56757 -0.652672 2.58321 -101.186 -45.6119 60.5356 -37.7434 6.16777 17.8546 2.81144 11.4851 -21.7468 7.47619 0.729939 5.14211 8.56873 2.1744 5.06463 -4.04109 1.05805 -1.84139 
-53.294 92.9672 -120.181 -108.275 -80.1813 -111.961 -173.212 22.8509 87.2395 -17.1627 9.80475 -2.57545 54.2579 -1.79466 5.57641 44.2589 16.437 -3.86976 176.549 -4.33407 86.0132 -43.6979 -5.71827 -6.23808 53.8089 1.5945 1.37184 55.1966 4.10114 15.9175 1.20006 7.60058 -89.2966 11.663 2.71698 1.11887 -0.0054397 2.76359 0.998121 -22.5539 2.25509 1.88393 -2.54124 2.2551 1.88392 79.4006 -48.0276 -117.599 16.8899 -8.90072 -1.77808 -16.3988 -12.5772 -59.7833 -10.2116 -0.812744 3.74588 -100.88 -45.7073 61.0339 -37.5296 5.99667 18.6907 2.73692 13.0148 -20.1252 6.71843 0.672928 5.21 7.28083 1.76955 4.05633 -4.68683 0.938128 -1.92811 
-52.5964 92.7505 -111.488 -120.292 -81.294 -125.936 -172.453 21.4332 84.1135 -27.5756 12.1162 -3.8615 58.5808 1.86692 9.06347 35.9423 7.6971 -12.0828 177.407 3.24572 84.1966 -59.098 0.518548 -6.61802 37.5293 5.05134 5.35147 34.4244 0.293486 4.04374 0.912489 7.68745 -89.088 11.4819 2.24171 1.58835 -0.187976 2.30944 1.48813 -22.7248 1.66081 2.18856 -2.7122 1.66082 2.18858 78.9608 -48.8792 -117.894 19.7534 -8.94525 2.85283 -14.7986 -12.8728 -56.2384 -9.33369 -0.674935 2.51028 -101.027 -45.0611 60.5437 -36.8984 6.12892 16.7641 2.46332 11.3701 -20.3158 7.30804 0.72491 5.23733 7.25537 1.70888 4.24671 -5.06276 0.858068 -2.61664 
-51.7602 93.9751 -103.646 -136.48 -82.8143 -141.499 -173.102 15.9677 83.4496 -28.3975 13.0628 -3.31558 61.5753 5.24927 10.579 32.9323 5.07709 -15.7193 177.415 12.5594 85.4831 -67.2689 10.1255 -5.04575 43.7787 1.83653 2.02291 30.3798 -0.202104 6.50957 0.458096 7.76266 -89.221 11.3397 1.27479 1.42407 -0.331303 1.33623 1.36659 -22.8625 0.787937 1.7413 -2.84985 0.78793 1.74128 78.2115 -50.876 -118.156 20.8797 -11.623 6.0952 -13.6274 -15.8171 -49.9234 -8.61602 -0.612764 1.8474 -102.119 -44.522 58.6631 -34.6877 6.79771 13.2073 3.01684 10.1259 -23.8534 7.69729 0.67132 4.25932 6.58055 1.78291 3.69682 -5.01916 1.05202 -1.8748 
-50.8693 95.6626 -95.9157 -166.025 -84.6148 -169.359 -174.499 9.6952 83.8656 -25.4981 15.0172 -1.75512 62.0141 6.04792 10.9671 36.007 7.66927 -15.904 177.172 18.6138 87.7781 -62.1283 10.8834 -3.37299 54.0559 -0.704708 -0.232874 37.1431 0.612991 7.88338 0.0102463 7.72899 -89.5072 11.414 0.250481 0.956656 -0.257237 0.292334 0.944704 -22.7896 -0.0486089 0.9877 -2.77697 -0.0486084 0.987699 77.8995 -52.7899 -117.811 22.9671 -12.7055 10.73 -13.5149 -19.1889 -44.8956 -6.23479 -0.49767 1.83427 -102.529 -43.6094 57.6334 -31.1929 7.9825 8.85041 4.33131 9.75305 -30.246 10.5667 0.916211 4.48658 4.34912 1.36345 2.55463 -4.03293 0.892797 -0.543401 
-50.6306 96.5856 -88.8049 162.748 -85.2404 159.87 -174.824 4.46693 84.4875 -22.5269 17.3123 -1.1253 62.1305 5.99288 10.8252 38.2331 9.53241 -15.932 177.958 21.4728 88.6673 -45.9959 12.0051 -2.02523 60.9313 -2.32019 -1.33234 43.6829 1.10871 3.41692 -0.345099 7.70893 -89.6451 11.4572 -0.520782 0.759615 -0.213894 -0.486847 0.781797 -22.7488 -0.725005 0.567987 -2.73612 -0.725005 0.567978 77.8147 -54.1129 -117.398 24.7299 -11.6795 15.2035 -10.4047 -19.9795 -40.1073 -3.3619 -0.427224 3.73042 -102.17 -42.4894 57.6694 -27.0024 8.56423 4.14697 6.85549 9.4415 -38.8225 13.4864 1.18935 4.79296 4.23579 0.891912 1.23854 -3.25924 0.660749 0.690094 
-50.7412 96.5184 -81.6425 127.281 -84.5736 124.198 -174.65 0.368264 85.1544 -21.0191 18.5514 -0.72941 64.2653 7.02554 8.18769 40.6585 11.8549 -12.7052 179.173 21.0321 88.0347 -21.7807 12.1686 -1.30786 62.1851 -2.29489 -1.29559 47.3372 1.4554 3.12925 -0.687855 7.67237 -89.6937 11.5332 -1.22505 0.736052 -0.137351 -1.19148 0.789251 -22.6767 -1.38963 0.333783 -2.66402 -1.38963 0.333786 77.592 -54.9005 -117.395 26.5293 -9.29781 18.9124 -9.13088 -21.1194 -35.1418 -0.732378 -0.302898 1.65305 -101.699 -41.9403 58.146 -21.1278 9.17066 -0.949659 13.7383 12.8007 -49.3313 13.0813 1.36663 6.33855 5.80047 0.876325 0.581545 -3.03944 0.75347 1.23969 
